<?xml version="1.0" encoding="UTF-8" standalone="no"?>
<!-- Created with Inkscape (http://www.inkscape.org/) -->

<svg
   version="1.1"
   id="svg2"
   width="666.66669"
   height="666.66669"
   viewBox="0 0 666.66669 666.66669"
   sodipodi:docname="9843250.eps"
   xmlns:inkscape="http://www.inkscape.org/namespaces/inkscape"
   xmlns:sodipodi="http://sodipodi.sourceforge.net/DTD/sodipodi-0.dtd"
   xmlns="http://www.w3.org/2000/svg"
   xmlns:svg="http://www.w3.org/2000/svg"
     style="--guitar-color: rgba(214, 214, 214, 0.3);">
  <defs
     id="defs6" />
  <sodipodi:namedview
     id="namedview4"
     pagecolor="#ffffff"
     bordercolor="#000000"
     borderopacity="0.25"
     inkscape:showpageshadow="2"
     inkscape:pageopacity="0.0"
     inkscape:pagecheckerboard="0"
     inkscape:deskcolor="#d1d1d1" />
  <g
     id="g8"
     inkscape:groupmode="layer"
     inkscape:label="ink_ext_XXXXXX"
     transform="matrix(1.3333333,0,0,-1.3333333,0,666.66667)">
    <g
       id="g10"
       transform="scale(0.1)">
      <path
         d="m 2531.79,2168.36 c 0,-133.57 -108.27,-241.84 -241.83,-241.84 -133.56,0 -241.83,108.27 -241.83,241.84 0,133.55 108.27,241.82 241.83,241.82 133.56,0 241.83,-108.27 241.83,-241.82"
         style="fill: var(--guitar-color);fill-opacity:1;fill-rule:nonzero;stroke:none"
         id="path14" />
      <path
         d="m 2596.19,2240.02 c 5.45,-23.4 8.2,-47.42 8.2,-71.66 0,-173.38 -141.05,-314.44 -314.43,-314.44 -173.38,0 -314.43,141.06 -314.43,314.44 0,173.37 141.05,314.42 314.43,314.42 20.88,0 41.65,-2.04 61.96,-6.09"
         style="fill:none;stroke: var(--guitar-color);stroke-width:15;stroke-linecap:butt;stroke-linejoin:round;stroke-miterlimit:10;stroke-dasharray:none;stroke-opacity:1"
         id="path16" />
      <path
         d="m 2280.74,2402.65 1688,1684.49 183.21,-173.44 -1627.49,-1750.84"
         style="fill:none;stroke: var(--guitar-color);stroke-width:15;stroke-linecap:butt;stroke-linejoin:round;stroke-miterlimit:10;stroke-dasharray:none;stroke-opacity:1"
         id="path18" />
      <path
         d="m 3968.74,4087.14 c 0,0 20.76,22.59 34.81,108.7 L 4456.68,4685 c 0,0 21.99,-37.25 66.57,-43.36 44.58,-6.1 78.16,-1.22 72.06,-26.87 0,0 33.28,12.21 52.98,-7.48 19.69,-19.69 10.99,-39.39 10.99,-39.39 0,0 21.07,-7.78 16.94,-31.6 -4.12,-23.82 7.79,-89.77 52.67,-111.76 l -475.57,-477.25 c 0,0 -37.25,-0.61 -101.37,-33.59"
         style="fill:none;stroke: var(--guitar-color);stroke-width:15;stroke-linecap:butt;stroke-linejoin:round;stroke-miterlimit:10;stroke-dasharray:none;stroke-opacity:1"
         id="path20" />
      <path
         d="m 4003.55,4195.84 -37.86,-41.53 c 1.41,-2.65 4.37,-32.05 3.05,-67.17"
         style="fill:none;stroke: var(--guitar-color);stroke-width:15;stroke-linecap:butt;stroke-linejoin:round;stroke-miterlimit:10;stroke-dasharray:none;stroke-opacity:1"
         id="path22" />
      <path
         d="m 4253.32,3947.29 -34.2,-33.59 c 0,0 -18.62,7.23 -67.17,0"
         style="fill:none;stroke: var(--guitar-color);stroke-width:15;stroke-linecap:butt;stroke-linejoin:round;stroke-miterlimit:10;stroke-dasharray:none;stroke-opacity:1"
         id="path24" />
      <path
         d="m 4141.85,4144.99 -40.72,-44.86 c -16.01,-17.66 -43.32,-18.99 -60.98,-2.96 v 0 c -17.65,16.02 -18.97,43.31 -2.95,60.97 l 314.69,346.8 c 16.03,17.66 43.33,18.98 60.98,2.96 v 0 c 17.66,-16.02 18.98,-43.32 2.96,-60.98 l -273.98,-301.93"
         style="fill:none;stroke: var(--guitar-color);stroke-width:15;stroke-linecap:butt;stroke-linejoin:round;stroke-miterlimit:10;stroke-dasharray:none;stroke-opacity:1"
         id="path26" />
      <path
         d="m 4318.19,4467.8 c 16.03,17.65 43.32,18.97 60.98,2.95 v 0 c 17.65,-16.02 18.98,-43.32 2.96,-60.97"
         style="fill:none;stroke: var(--guitar-color);stroke-width:15;stroke-linecap:butt;stroke-linejoin:round;stroke-miterlimit:10;stroke-dasharray:none;stroke-opacity:1"
         id="path28" />
      <path
         d="m 4080.5,4205.85 61.35,-60.86"
         style="fill:none;stroke: var(--guitar-color);stroke-width:15;stroke-linecap:butt;stroke-linejoin:round;stroke-miterlimit:10;stroke-dasharray:none;stroke-opacity:1"
         id="path30" />
      <path
         d="M 4116.93,4246.01 4179.97,4187"
         style="fill:none;stroke: var(--guitar-color);stroke-width:15;stroke-linecap:butt;stroke-linejoin:round;stroke-miterlimit:10;stroke-dasharray:none;stroke-opacity:1"
         id="path32" />
      <path
         d="m 4189.17,4325.61 62.29,-59.82"
         style="fill:none;stroke: var(--guitar-color);stroke-width:15;stroke-linecap:butt;stroke-linejoin:round;stroke-miterlimit:10;stroke-dasharray:none;stroke-opacity:1"
         id="path34" />
      <path
         d="m 4224.74,4364.81 62.91,-59.14"
         style="fill:none;stroke: var(--guitar-color);stroke-width:15;stroke-linecap:butt;stroke-linejoin:round;stroke-miterlimit:10;stroke-dasharray:none;stroke-opacity:1"
         id="path36" />
      <path
         d="m 4298.29,4445.87 62.12,-60.03"
         style="fill:none;stroke: var(--guitar-color);stroke-width:15;stroke-linecap:butt;stroke-linejoin:round;stroke-miterlimit:10;stroke-dasharray:none;stroke-opacity:1"
         id="path38" />
      <path
         d="m 4327.19,4477.71 64.15,-57.78"
         style="fill:none;stroke: var(--guitar-color);stroke-width:15;stroke-linecap:butt;stroke-linejoin:round;stroke-miterlimit:10;stroke-dasharray:none;stroke-opacity:1"
         id="path40" />
      <path
         d="m 4264.03,4026.93 -42.71,-42.98 c -16.81,-16.91 -44.14,-16.99 -61.06,-0.19 v 0 c -16.9,16.81 -16.99,44.14 -0.18,61.05 l 330.12,332.15 c 16.81,16.91 44.14,16.99 61.06,0.18 v 0 c 16.9,-16.8 16.99,-44.13 0.18,-61.04 l -287.41,-289.17"
         style="fill:none;stroke: var(--guitar-color);stroke-width:15;stroke-linecap:butt;stroke-linejoin:round;stroke-miterlimit:10;stroke-dasharray:none;stroke-opacity:1"
         id="path42" />
      <path
         d="m 4454.85,4341.39 c 16.81,16.9 44.14,16.99 61.05,0.18 v 0 c 16.91,-16.8 16.99,-44.14 0.18,-61.05"
         style="fill:none;stroke: var(--guitar-color);stroke-width:15;stroke-linecap:butt;stroke-linejoin:round;stroke-miterlimit:10;stroke-dasharray:none;stroke-opacity:1"
         id="path44" />
      <path
         d="m 4205.5,4090.51 58.53,-63.58"
         style="fill:none;stroke: var(--guitar-color);stroke-width:15;stroke-linecap:butt;stroke-linejoin:round;stroke-miterlimit:10;stroke-dasharray:none;stroke-opacity:1"
         id="path46" />
      <path
         d="m 4243.73,4128.97 60.28,-61.81"
         style="fill:none;stroke: var(--guitar-color);stroke-width:15;stroke-linecap:butt;stroke-linejoin:round;stroke-miterlimit:10;stroke-dasharray:none;stroke-opacity:1"
         id="path48" />
      <path
         d="m 4319.5,4205.21 59.51,-62.6"
         style="fill:none;stroke: var(--guitar-color);stroke-width:15;stroke-linecap:butt;stroke-linejoin:round;stroke-miterlimit:10;stroke-dasharray:none;stroke-opacity:1"
         id="path50" />
      <path
         d="m 4356.81,4242.75 60.16,-61.94"
         style="fill:none;stroke: var(--guitar-color);stroke-width:15;stroke-linecap:butt;stroke-linejoin:round;stroke-miterlimit:10;stroke-dasharray:none;stroke-opacity:1"
         id="path52" />
      <path
         d="m 4433.97,4320.38 59.33,-62.78"
         style="fill:none;stroke: var(--guitar-color);stroke-width:15;stroke-linecap:butt;stroke-linejoin:round;stroke-miterlimit:10;stroke-dasharray:none;stroke-opacity:1"
         id="path54" />
      <path
         d="m 4464.28,4350.88 61.46,-60.64"
         style="fill:none;stroke: var(--guitar-color);stroke-width:15;stroke-linecap:butt;stroke-linejoin:round;stroke-miterlimit:10;stroke-dasharray:none;stroke-opacity:1"
         id="path56" />
      <path
         d="m 4310.04,4530.34 c -10.43,-10.43 -28.43,-9.36 -40.19,2.41 -11.77,11.77 -12.85,29.76 -2.42,40.19 10.44,10.43 28.43,9.35 40.19,-2.41 11.77,-11.77 12.85,-29.76 2.42,-40.19 z"
         style="fill:none;stroke: var(--guitar-color);stroke-width:15;stroke-linecap:butt;stroke-linejoin:round;stroke-miterlimit:10;stroke-dasharray:none;stroke-opacity:1"
         id="path58" />
      <path
         d="m 4220.26,4525.77 c -10.44,-10.43 -9.35,-28.43 2.41,-40.2 11.77,-11.76 29.76,-12.84 40.19,-2.41 l 47.18,47.18"
         style="fill:none;stroke: var(--guitar-color);stroke-width:15;stroke-linecap:butt;stroke-linejoin:round;stroke-miterlimit:10;stroke-dasharray:none;stroke-opacity:1"
         id="path60" />
      <path
         d="m 4220.26,4525.77 47.17,47.17"
         style="fill:none;stroke: var(--guitar-color);stroke-width:15;stroke-linecap:butt;stroke-linejoin:round;stroke-miterlimit:10;stroke-dasharray:none;stroke-opacity:1"
         id="path62" />
      <path
         d="m 4617.56,4223.13 c -10.43,-10.43 -28.43,-9.35 -40.2,2.42 -11.76,11.76 -12.84,29.75 -2.41,40.18 10.43,10.43 28.43,9.36 40.19,-2.41 11.77,-11.77 12.85,-29.76 2.42,-40.19 z"
         style="fill:none;stroke: var(--guitar-color);stroke-width:15;stroke-linecap:butt;stroke-linejoin:round;stroke-miterlimit:10;stroke-dasharray:none;stroke-opacity:1"
         id="path64" />
      <path
         d="m 4527.77,4218.56 c -10.43,-10.43 -9.34,-28.42 2.42,-40.19 11.76,-11.76 29.76,-12.85 40.19,-2.41 l 47.18,47.17"
         style="fill:none;stroke: var(--guitar-color);stroke-width:15;stroke-linecap:butt;stroke-linejoin:round;stroke-miterlimit:10;stroke-dasharray:none;stroke-opacity:1"
         id="path66" />
      <path
         d="m 4527.77,4218.56 47.18,47.17"
         style="fill:none;stroke: var(--guitar-color);stroke-width:15;stroke-linecap:butt;stroke-linejoin:round;stroke-miterlimit:10;stroke-dasharray:none;stroke-opacity:1"
         id="path68" />
      <path
         d="m 4503.35,4111.49 c -10.43,-10.43 -28.43,-9.35 -40.2,2.42 -11.77,11.76 -12.84,29.75 -2.41,40.19 10.43,10.43 28.43,9.35 40.2,-2.42 11.75,-11.76 12.84,-29.75 2.41,-40.19 z"
         style="fill:none;stroke: var(--guitar-color);stroke-width:15;stroke-linecap:butt;stroke-linejoin:round;stroke-miterlimit:10;stroke-dasharray:none;stroke-opacity:1"
         id="path70" />
      <path
         d="m 4570.38,4175.96 c 24.32,-22.87 -36.25,-90.8 -67.03,-64.47 l -47.18,-47.17 c -10.43,-10.43 -28.43,-9.35 -40.2,2.41 -11.75,11.77 -12.84,29.76 -2.41,40.19"
         style="fill:none;stroke: var(--guitar-color);stroke-width:15;stroke-linecap:butt;stroke-linejoin:round;stroke-miterlimit:10;stroke-dasharray:none;stroke-opacity:1"
         id="path72" />
      <path
         d="m 4413.56,4106.92 47.18,47.18"
         style="fill:none;stroke: var(--guitar-color);stroke-width:15;stroke-linecap:butt;stroke-linejoin:round;stroke-miterlimit:10;stroke-dasharray:none;stroke-opacity:1"
         id="path74" />
      <path
         d="m 4384.84,3990.41 c -10.44,-10.43 -28.43,-9.35 -40.19,2.42 -11.77,11.76 -12.85,29.76 -2.42,40.19 10.43,10.43 28.43,9.35 40.19,-2.42 11.77,-11.76 12.85,-29.76 2.42,-40.19 z"
         style="fill:none;stroke: var(--guitar-color);stroke-width:15;stroke-linecap:butt;stroke-linejoin:round;stroke-miterlimit:10;stroke-dasharray:none;stroke-opacity:1"
         id="path76" />
      <path
         d="m 4295.06,3985.84 c -10.43,-10.43 -9.36,-28.42 2.41,-40.19 11.77,-11.77 29.76,-12.85 40.19,-2.41 l 47.18,47.17"
         style="fill:none;stroke: var(--guitar-color);stroke-width:15;stroke-linecap:butt;stroke-linejoin:round;stroke-miterlimit:10;stroke-dasharray:none;stroke-opacity:1"
         id="path78" />
      <path
         d="m 4295.06,3985.84 47.17,47.18"
         style="fill:none;stroke: var(--guitar-color);stroke-width:15;stroke-linecap:butt;stroke-linejoin:round;stroke-miterlimit:10;stroke-dasharray:none;stroke-opacity:1"
         id="path80" />
      <path
         d="m 4200.04,4412.06 c -10.44,-10.43 -28.43,-9.35 -40.2,2.42 -11.77,11.76 -12.84,29.75 -2.41,40.19 10.43,10.43 28.43,9.35 40.19,-2.42 11.76,-11.76 12.85,-29.75 2.42,-40.19 z"
         style="fill:none;stroke: var(--guitar-color);stroke-width:15;stroke-linecap:butt;stroke-linejoin:round;stroke-miterlimit:10;stroke-dasharray:none;stroke-opacity:1"
         id="path82" />
      <path
         d="m 4110.25,4407.49 c -10.43,-10.43 -9.34,-28.42 2.41,-40.19 11.77,-11.76 29.77,-12.84 40.2,-2.41 l 47.18,47.17"
         style="fill:none;stroke: var(--guitar-color);stroke-width:15;stroke-linecap:butt;stroke-linejoin:round;stroke-miterlimit:10;stroke-dasharray:none;stroke-opacity:1"
         id="path84" />
      <path
         d="m 4110.25,4407.49 47.18,47.18"
         style="fill:none;stroke: var(--guitar-color);stroke-width:15;stroke-linecap:butt;stroke-linejoin:round;stroke-miterlimit:10;stroke-dasharray:none;stroke-opacity:1"
         id="path86" />
      <path
         d="m 4091.98,4291.27 c -10.43,-10.43 -28.43,-9.35 -40.2,2.42 -11.75,11.76 -12.84,29.76 -2.41,40.19 10.43,10.43 28.43,9.35 40.2,-2.41 11.77,-11.77 12.84,-29.76 2.41,-40.2 z"
         style="fill:none;stroke: var(--guitar-color);stroke-width:15;stroke-linecap:butt;stroke-linejoin:round;stroke-miterlimit:10;stroke-dasharray:none;stroke-opacity:1"
         id="path88" />
      <path
         d="m 4002.2,4286.7 c -10.43,-10.43 -9.35,-28.42 2.42,-40.19 11.75,-11.76 29.75,-12.85 40.18,-2.41 l 47.18,47.17"
         style="fill:none;stroke: var(--guitar-color);stroke-width:15;stroke-linecap:butt;stroke-linejoin:round;stroke-miterlimit:10;stroke-dasharray:none;stroke-opacity:1"
         id="path90" />
      <path
         d="m 4002.2,4286.7 47.17,47.18"
         style="fill:none;stroke: var(--guitar-color);stroke-width:15;stroke-linecap:butt;stroke-linejoin:round;stroke-miterlimit:10;stroke-dasharray:none;stroke-opacity:1"
         id="path92" />
      <path
         d="m 4174.28,4461.76 c -33.02,32.4 21.64,85.53 48.84,66.87"
         style="fill:none;stroke: var(--guitar-color);stroke-width:15;stroke-linecap:butt;stroke-linejoin:round;stroke-miterlimit:10;stroke-dasharray:none;stroke-opacity:1"
         id="path94" />
      <path
         d="m 4062.12,4342.13 c -33.03,32.41 21.62,85.53 48.83,66.88"
         style="fill:none;stroke: var(--guitar-color);stroke-width:15;stroke-linecap:butt;stroke-linejoin:round;stroke-miterlimit:10;stroke-dasharray:none;stroke-opacity:1"
         id="path96" />
      <path
         d="m 3998.31,4282.84 c -27.21,18.65 -81.55,-34.16 -48.84,-66.88 32.14,-32.14 37.5,-38.3 37.5,-38.3"
         style="fill:none;stroke: var(--guitar-color);stroke-width:15;stroke-linecap:butt;stroke-linejoin:round;stroke-miterlimit:10;stroke-dasharray:none;stroke-opacity:1"
         id="path98" />
      <path
         d="m 4447.27,4058.72 c 21.32,-20.19 -23.61,-77.72 -56.72,-59.16"
         style="fill:none;stroke: var(--guitar-color);stroke-width:15;stroke-linecap:butt;stroke-linejoin:round;stroke-miterlimit:10;stroke-dasharray:none;stroke-opacity:1"
         id="path100" />
      <path
         d="m 4333.85,3940.13 c 13.82,-15.13 -35.31,-72.34 -55.87,-51.77 -20.58,20.57 -40.83,43.04 -40.83,43.04"
         style="fill:none;stroke: var(--guitar-color);stroke-width:15;stroke-linecap:butt;stroke-linejoin:round;stroke-miterlimit:10;stroke-dasharray:none;stroke-opacity:1"
         id="path102" />
      <path
         d="m 2368.9,2490.64 239,-238.01"
         style="fill:none;stroke: var(--guitar-color);stroke-width:15;stroke-linecap:butt;stroke-linejoin:round;stroke-miterlimit:10;stroke-dasharray:none;stroke-opacity:1"
         id="path104" />
      <path
         d="m 2465.74,2587.27 235.6,-234.13"
         style="fill:none;stroke: var(--guitar-color);stroke-width:15;stroke-linecap:butt;stroke-linejoin:round;stroke-miterlimit:10;stroke-dasharray:none;stroke-opacity:1"
         id="path106" />
      <path
         d="m 2562.58,2683.9 232.2,-230.24"
         style="fill:none;stroke: var(--guitar-color);stroke-width:15;stroke-linecap:butt;stroke-linejoin:round;stroke-miterlimit:10;stroke-dasharray:none;stroke-opacity:1"
         id="path108" />
      <path
         d="m 2659.41,2780.54 228.81,-226.35"
         style="fill:none;stroke: var(--guitar-color);stroke-width:15;stroke-linecap:butt;stroke-linejoin:round;stroke-miterlimit:10;stroke-dasharray:none;stroke-opacity:1"
         id="path110" />
      <path
         d="m 2756.24,2877.17 225.42,-222.46"
         style="fill:none;stroke: var(--guitar-color);stroke-width:15;stroke-linecap:butt;stroke-linejoin:round;stroke-miterlimit:10;stroke-dasharray:none;stroke-opacity:1"
         id="path112" />
      <path
         d="M 2853.07,2973.8 3075.1,2755.23"
         style="fill:none;stroke: var(--guitar-color);stroke-width:15;stroke-linecap:butt;stroke-linejoin:round;stroke-miterlimit:10;stroke-dasharray:none;stroke-opacity:1"
         id="path114" />
      <path
         d="m 2949.91,3070.44 218.62,-214.69"
         style="fill:none;stroke: var(--guitar-color);stroke-width:15;stroke-linecap:butt;stroke-linejoin:round;stroke-miterlimit:10;stroke-dasharray:none;stroke-opacity:1"
         id="path116" />
      <path
         d="m 3046.75,3167.07 215.23,-210.8"
         style="fill:none;stroke: var(--guitar-color);stroke-width:15;stroke-linecap:butt;stroke-linejoin:round;stroke-miterlimit:10;stroke-dasharray:none;stroke-opacity:1"
         id="path118" />
      <path
         d="m 3143.58,3263.7 211.84,-206.91"
         style="fill:none;stroke: var(--guitar-color);stroke-width:15;stroke-linecap:butt;stroke-linejoin:round;stroke-miterlimit:10;stroke-dasharray:none;stroke-opacity:1"
         id="path120" />
      <path
         d="m 3240.42,3360.33 208.44,-203.01"
         style="fill:none;stroke: var(--guitar-color);stroke-width:15;stroke-linecap:butt;stroke-linejoin:round;stroke-miterlimit:10;stroke-dasharray:none;stroke-opacity:1"
         id="path122" />
      <path
         d="m 3337.25,3456.97 205.04,-199.13"
         style="fill:none;stroke: var(--guitar-color);stroke-width:15;stroke-linecap:butt;stroke-linejoin:round;stroke-miterlimit:10;stroke-dasharray:none;stroke-opacity:1"
         id="path124" />
      <path
         d="m 3434.09,3553.6 201.64,-195.24"
         style="fill:none;stroke: var(--guitar-color);stroke-width:15;stroke-linecap:butt;stroke-linejoin:round;stroke-miterlimit:10;stroke-dasharray:none;stroke-opacity:1"
         id="path126" />
      <path
         d="m 3530.93,3650.23 198.24,-191.35"
         style="fill:none;stroke: var(--guitar-color);stroke-width:15;stroke-linecap:butt;stroke-linejoin:round;stroke-miterlimit:10;stroke-dasharray:none;stroke-opacity:1"
         id="path128" />
      <path
         d="M 3627.76,3746.87 3822.62,3559.4"
         style="fill:none;stroke: var(--guitar-color);stroke-width:15;stroke-linecap:butt;stroke-linejoin:round;stroke-miterlimit:10;stroke-dasharray:none;stroke-opacity:1"
         id="path130" />
      <path
         d="m 3724.6,3843.5 191.45,-183.58"
         style="fill:none;stroke: var(--guitar-color);stroke-width:15;stroke-linecap:butt;stroke-linejoin:round;stroke-miterlimit:10;stroke-dasharray:none;stroke-opacity:1"
         id="path132" />
      <path
         d="m 3821.43,3940.13 188.06,-179.68"
         style="fill:none;stroke: var(--guitar-color);stroke-width:15;stroke-linecap:butt;stroke-linejoin:round;stroke-miterlimit:10;stroke-dasharray:none;stroke-opacity:1"
         id="path134" />
      <path
         d="m 2827.71,2487.68 c -27.26,-43.1 -48.8,-89.22 -51.29,-129.8 -8.68,-141.43 156.92,-229.3 207.88,-252.85 29.08,-13.45 66.3,-37.65 78.57,-76.63 10.18,-32.35 2.21,-71.25 -23.7,-115.67 -53.7,-92.05 -217.93,-186.1 -349.89,-261.67 -26.21,-15 -51.46,-29.47 -74.85,-43.31 -109.37,-64.71 -137.57,-208.64 -170.23,-375.29 -15.19,-77.56 -30.91,-157.76 -56.06,-235.19 -75.97,-233.84 -279.89,-512.34 -604.55,-527.571 -9.01,-0.429 -18.23,-0.64 -27.37,-0.64 -0.02,0 -0.04,0 -0.05,0 -325.4,0.023 -719.12,261.5 -979.717,650.651 -229.691,343.02 -238.258,633.75 -26.187,888.81 163.207,196.29 399.754,253.73 589.824,299.88 13.18,3.21 26.14,6.35 38.81,9.49 l 26.01,6.4 c 180.23,44.25 270.7,66.47 344.25,211.04 7.07,13.88 14.42,28.79 22.15,44.47 69.97,141.85 165.78,336.12 353.28,405.91 56,20.85 112.49,31.41 167.9,31.41 134.18,0 268.15,-58.6 421.51,-184.39"
         style="fill:none;stroke: var(--guitar-color);stroke-width:15;stroke-linecap:butt;stroke-linejoin:round;stroke-miterlimit:10;stroke-dasharray:none;stroke-opacity:1"
         id="path136" />
      <path
         d="m 1171.48,1712.17 110.84,111.75 718.17,-696.18 -110.84,-110.84 z"
         style="fill:none;stroke: var(--guitar-color);stroke-width:15;stroke-linecap:butt;stroke-linejoin:round;stroke-miterlimit:10;stroke-dasharray:none;stroke-opacity:1"
         id="path138" />
      <path
         d="m 1367.74,1522.17 53.21,51.99 317.56,-309.62 -50.55,-52.37"
         style="fill:none;stroke: var(--guitar-color);stroke-width:15;stroke-linecap:butt;stroke-linejoin:round;stroke-miterlimit:10;stroke-dasharray:none;stroke-opacity:1"
         id="path140" />
      <path
         d="m 1411.2,1480.1 49.16,55.63 2650.81,2669.48"
         style="fill:none;stroke: var(--guitar-color);stroke-width:7.5;stroke-linecap:butt;stroke-linejoin:round;stroke-miterlimit:10;stroke-dasharray:none;stroke-opacity:1"
         id="path142" />
      <path
         d="m 1454.01,1438.65 50.73,53.81 2504.75,2556.1 220.63,271.82"
         style="fill:none;stroke: var(--guitar-color);stroke-width:7.5;stroke-linecap:butt;stroke-linejoin:round;stroke-miterlimit:10;stroke-dasharray:none;stroke-opacity:1"
         id="path144" />
      <path
         d="m 1505.2,1389.09 47.93,56.19 2490.37,2571.08 298.73,417.01"
         style="fill:none;stroke: var(--guitar-color);stroke-width:7.5;stroke-linecap:butt;stroke-linejoin:round;stroke-miterlimit:10;stroke-dasharray:none;stroke-opacity:1"
         id="path146" />
      <path
         d="m 1544.3,1351.25 54.45,49.55 2476.99,2585.04 399.87,319.83"
         style="fill:none;stroke: var(--guitar-color);stroke-width:7.5;stroke-linecap:butt;stroke-linejoin:round;stroke-miterlimit:10;stroke-dasharray:none;stroke-opacity:1"
         id="path148" />
      <path
         d="m 1597.8,1299.44 51.78,51.81 2451.54,2610.57 271.9,225.18"
         style="fill:none;stroke: var(--guitar-color);stroke-width:7.5;stroke-linecap:butt;stroke-linejoin:round;stroke-miterlimit:10;stroke-dasharray:none;stroke-opacity:1"
         id="path150" />
      <path
         d="m 1644.81,1253.94 53.51,49.78 2435.53,2627.12 127.71,140.12"
         style="fill:none;stroke: var(--guitar-color);stroke-width:7.5;stroke-linecap:butt;stroke-linejoin:round;stroke-miterlimit:10;stroke-dasharray:none;stroke-opacity:1"
         id="path152" />
      <path
         d="m 2732.95,2853.92 c -200.25,164.51 -398.41,240.24 -618.26,158.41 -219.85,-81.84 -320,-324.89 -390.84,-464.13 -70.84,-139.24 -153.89,-153.9 -351.76,-202.74 C 1174.23,2296.6 909.191,2244.08 728.43,2026.68 547.664,1809.27 478.047,1514.3 752.855,1103.92 1027.67,693.539 1446.6,425.449 1784.92,441.332 c 338.32,15.867 552.06,306.566 630.23,547.168 78.17,240.62 67.18,508.1 213.74,594.82 146.57,86.72 366.41,197.86 434.81,315.11 68.4,117.25 17.71,192.97 -67.48,232.37 -85.19,39.38 -197.86,120.92 -191.45,225.34 6.41,104.42 167.63,264.74 167.63,264.74 l -11.61,11.37"
         style="fill:none;stroke: var(--guitar-color);stroke-width:15;stroke-linecap:butt;stroke-linejoin:round;stroke-miterlimit:10;stroke-dasharray:none;stroke-opacity:1"
         id="path154" />
      <path
         d="m 2565.52,1524.75 c 111.69,64.09 319.15,189.8 400.44,269.21"
         style="fill:none;stroke: var(--guitar-color);stroke-width:15;stroke-linecap:butt;stroke-linejoin:round;stroke-miterlimit:10;stroke-dasharray:none;stroke-opacity:1"
         id="path156" />
      <path
         d="M 817.078,2115.71 C 750.855,2065.45 612.277,1948.37 563.266,1889.41 382.504,1672.01 312.883,1377.05 587.691,966.672 862.504,556.289 1281.43,288.191 1619.75,304.07 c 165.31,7.75 341.05,101.84 548.51,298.961"
         style="fill:none;stroke: var(--guitar-color);stroke-width:15;stroke-linecap:butt;stroke-linejoin:round;stroke-miterlimit:10;stroke-dasharray:none;stroke-opacity:1"
         id="path158" />
      <path
         d="m 2102.65,3007.62 c -245.67,-96.39 -426.4,-410.71 -497.24,-549.95 -10.13,-19.92 -20.51,-37.28 -31.45,-52.56"
         style="fill:none;stroke: var(--guitar-color);stroke-width:15;stroke-linecap:butt;stroke-linejoin:round;stroke-miterlimit:10;stroke-dasharray:none;stroke-opacity:1"
         id="path160" />
      <path
         d="m 1248.53,1722.95 v 0 c 23.2,22.87 60.41,23.01 83.8,0.34 l 558.31,-541.32 c 23.32,-22.62 24.15,-59.78 1.85,-83.41 v 0 c -22.85,-24.21 -61.12,-24.92 -84.86,-1.58 l -117.06,115.19 47.94,52.37 -317.56,309.62 -54.77,-50.48 -117.26,113.52 c -24.18,23.41 -24.35,62.12 -0.39,85.75"
         style="fill: var(--guitar-color);fill-opacity:1;fill-rule:nonzero;stroke:none"
         id="path162" />
      <path
         d="m 1084.45,472.621 c -26.99,17.578 -53.63,35.578 -80.26,53.719 -26.389,18.441 -52.522,37.34 -78.081,57.07 -50.91,39.672 -99.043,83.18 -143.254,130.301 -44.031,47.281 -85.683,96.73 -123.82,148.738 -38.64,51.629 -73.75,105.731 -107.383,160.591 19.481,-25.661 37.399,-52.36 57.188,-77.712 l 28.836,-38.586 29.695,-37.91 c 40.277,-49.941 81.047,-99.48 125.629,-145.473 44.277,-46.238 91.125,-89.91 140.387,-130.918 24.492,-20.679 49.66,-40.621 75.163,-60.16 25.2,-19.972 50.91,-39.34 75.9,-59.66"
         style="fill: var(--guitar-color);fill-opacity:1;fill-rule:nonzero;stroke:none"
         id="path164" />
      <path
         d="m 1088.97,487.5 c -51.98,36.301 -104.669,71.699 -154.685,110.992 -12.59,9.707 -24.984,19.656 -37.144,29.93 -12.383,10 -24.227,20.617 -36.196,31.117 -23.57,21.359 -47.406,42.641 -68.558,66.481 -42.989,47.011 -82.86,96.64 -120.676,147.66 -38.031,50.89 -72.758,104.058 -107.117,157.34 36.234,-52.051 72.773,-103.872 112.465,-153.239 39.476,-49.5 80.871,-97.429 125.101,-142.492 5.594,-5.578 11.27,-11.047 16.715,-16.769 5.43,-5.719 10.738,-11.571 16.367,-17.098 11.184,-11.121 21.938,-22.711 33.531,-33.43 11.442,-10.883 22.77,-21.91 34.653,-32.32 11.66,-10.672 23.578,-21.063 35.703,-31.223 48.141,-41.07 99.351,-78.578 149.841,-116.949"
         style="fill: var(--guitar-color);fill-opacity:1;fill-rule:nonzero;stroke:none"
         id="path166" />
      <path
         d="m 1093.5,502.379 c -51.3,35.672 -103.105,70.769 -152.25,109.703 -24.734,19.238 -48.621,39.578 -72.078,60.406 -23.141,21.16 -46.57,42.184 -67.477,65.633 -42.277,46.418 -81.558,95.34 -118.812,145.649 -37.496,50.152 -71.61,102.628 -105.356,155.22 35.629,-51.349 71.563,-102.49 110.727,-151.111 38.918,-48.77 79.726,-96 123.277,-140.469 11.266,-10.738 21.68,-22.301 32.5,-33.48 11,-10.981 21.676,-22.328 32.957,-33.051 22.414,-21.598 45.293,-42.77 69.11,-62.887 47.265,-40.703 97.582,-77.871 147.402,-115.613"
         style="fill: var(--guitar-color);fill-opacity:1;fill-rule:nonzero;stroke:none"
         id="path168" />
      <path
         d="m 1098.02,517.25 c -50.61,35.07 -101.524,69.871 -149.797,108.422 -24.27,19.09 -47.727,39.219 -70.825,59.777 -22.707,20.953 -45.73,41.723 -66.386,64.762 -41.574,45.82 -80.274,94.059 -116.957,143.648 -36.957,49.411 -70.469,101.223 -103.594,153.111 35.023,-50.661 70.355,-101.111 108.988,-148.978 38.356,-48.062 78.586,-94.57 121.446,-138.453 11.062,-10.637 21.402,-21.937 31.929,-33.098 10.797,-10.871 21.442,-21.921 32.383,-32.671 22.055,-21.321 44.523,-42.258 67.863,-62.239 46.407,-40.293 95.8,-77.152 144.95,-114.281"
         style="fill: var(--guitar-color);fill-opacity:1;fill-rule:nonzero;stroke:none"
         id="path170" />
      <path
         d="m 1102.55,532.141 c -49.92,34.461 -99.92,68.988 -147.351,107.14 -11.976,9.367 -23.465,19.348 -35.23,29.02 l -34.34,30.109 -33.395,31.192 c -10.839,10.699 -21.675,21.429 -31.91,32.707 -40.879,45.222 -78.984,92.75 -115.097,141.621 -36.422,48.691 -69.321,99.81 -101.832,151.02 34.421,-49.97 69.152,-99.731 107.253,-146.868 37.793,-47.332 77.438,-93.141 119.614,-136.41 10.855,-10.531 21.109,-21.602 31.355,-32.711 l 31.813,-32.289 32.828,-31.293 c 11.273,-10.07 22.281,-20.469 33.797,-30.277 45.565,-39.891 94.035,-76.442 142.495,-112.961"
         style="fill: var(--guitar-color);fill-opacity:1;fill-rule:nonzero;stroke:none"
         id="path172" />
      <path
         d="m 1107.07,547.012 c -49.22,33.879 -98.29,68.16 -144.879,105.886 l -34.566,28.743 -33.676,29.808 c -21.969,20.41 -44.074,40.781 -64.304,62.973 -40.207,44.578 -77.696,91.437 -113.247,139.598 -35.882,47.949 -68.171,98.39 -100.062,148.91 33.812,-49.29 67.934,-98.348 105.508,-144.75 37.234,-46.598 76.269,-91.731 117.797,-134.371 10.644,-10.411 20.738,-21.329 30.843,-32.27 l 31.25,-31.879 32.176,-31 33.141,-30 c 44.729,-39.441 92.249,-75.719 140.019,-111.648"
         style="fill: var(--guitar-color);fill-opacity:1;fill-rule:nonzero;stroke:none"
         id="path174" />
      <path
         d="m 1111.59,561.879 c -48.5,33.301 -96.67,67.32 -142.383,104.672 -45.492,37.519 -89.723,76.918 -130.191,120.019 -39.637,43.86 -76.434,90.121 -111.446,137.539 -35.336,47.223 -67.031,96.961 -98.3,146.801 33.203,-48.61 66.738,-96.969 103.769,-142.621 36.703,-45.859 75.051,-90.379 116.027,-132.309 10.34,-10.378 20.34,-21.07 30.282,-31.851 9.965,-10.75 20.472,-20.969 30.695,-31.488 20.75,-20.719 42.18,-40.762 64.031,-60.379 43.856,-39.051 90.446,-75.032 137.516,-110.383"
         style="fill: var(--guitar-color);fill-opacity:1;fill-rule:nonzero;stroke:none"
         id="path176" />
      <path
         d="m 1116.12,576.77 c -47.77,32.75 -95.1,66.41 -139.823,103.511 -44.66,37.098 -88.035,76.059 -127.91,118.438 -39.074,43.133 -75.18,88.793 -109.645,135.48 -34.777,46.492 -65.898,95.531 -96.539,144.671 32.59,-47.91 65.555,-95.55 102.031,-140.479 36.168,-45.121 73.829,-89.02 114.254,-130.231 39.336,-42.18 79.492,-83.75 122.676,-122.211 42.886,-38.789 88.616,-74.39 134.956,-109.179"
         style="fill: var(--guitar-color);fill-opacity:1;fill-rule:nonzero;stroke:none"
         id="path178" />
      <path
         d="m 1120.64,591.641 c -47.06,32.179 -93.4,65.668 -137.249,102.379 -43.825,36.671 -86.352,75.171 -125.637,116.851 -38.445,42.461 -73.953,87.43 -107.84,133.41 -34.219,45.789 -64.766,94.119 -94.773,142.569 31.964,-47.22 64.371,-94.159 100.293,-138.362 35.589,-44.398 72.66,-87.609 112.472,-128.148 38.582,-41.641 78.039,-82.629 120.36,-120.692 C 1030.28,661.25 1075,625.852 1120.64,591.641"
         style="fill: var(--guitar-color);fill-opacity:1;fill-rule:nonzero;stroke:none"
         id="path180" />
      <path
         d="m 1125.17,606.512 c -46.38,31.59 -91.65,65 -134.674,101.258 -42.996,36.242 -84.687,74.269 -123.383,115.242 -37.754,41.84 -72.761,86.039 -106.027,131.347 -33.66,45.071 -63.633,92.691 -93.008,140.471 31.348,-46.55 63.18,-92.75 98.551,-136.24 34.98,-43.719 71.551,-86.16 110.691,-126.078 37.825,-41.11 76.594,-81.512 118.047,-119.16 41.203,-37.942 84.843,-73.231 129.803,-106.84"
         style="fill: var(--guitar-color);fill-opacity:1;fill-rule:nonzero;stroke:none"
         id="path182" />
      <path
         d="m 1129.7,621.391 c -45.65,31.058 -89.86,64.371 -132.091,100.14 -42.179,35.789 -83.027,73.36 -121.136,113.621 -37.071,41.219 -71.567,84.649 -104.219,129.297 -33.098,44.361 -62.496,91.261 -91.242,138.361 30.734,-45.87 62,-91.36 96.812,-134.111 34.371,-43.051 70.442,-84.719 108.906,-124.019 37.067,-40.571 75.153,-80.379 115.75,-117.621 40.42,-37.438 82.99,-72.598 127.22,-105.668"
         style="fill: var(--guitar-color);fill-opacity:1;fill-rule:nonzero;stroke:none"
         id="path184" />
      <path
         d="m 1134.22,636.27 c -44.89,30.562 -88.04,63.781 -129.49,99.019 -41.367,35.352 -81.382,72.441 -118.902,111.992 -36.383,40.617 -70.371,83.278 -102.402,127.258 -32.531,43.631 -61.363,89.831 -89.477,136.251 30.11,-45.19 60.813,-89.95 95.071,-131.989 33.757,-42.379 69.324,-83.27 107.121,-121.961 36.308,-40.039 73.711,-79.231 113.469,-116.059 39.65,-36.91 81.14,-71.949 124.61,-104.511"
         style="fill: var(--guitar-color);fill-opacity:1;fill-rule:nonzero;stroke:none"
         id="path186" />
      <path
         d="m 1138.74,651.141 c -44.1,30.121 -86.19,63.199 -126.89,97.929 -40.549,34.879 -79.737,71.5 -116.67,110.352 -17.977,19.879 -34.875,40.699 -51.942,61.316 l -24.66,31.703 -12.262,15.891 -11.718,16.297 c -31.969,42.921 -60.231,88.401 -87.715,134.131 29.496,-44.5 59.633,-88.55 93.336,-129.862 l 12.355,-15.679 12.895,-15.258 25.879,-30.391 c 17.859,-19.742 35.511,-39.629 54.199,-58.558 35.551,-39.512 72.273,-78.102 111.193,-114.5 38.89,-36.391 79.32,-71.282 122,-103.371"
         style="fill: var(--guitar-color);fill-opacity:1;fill-rule:nonzero;stroke:none"
         id="path188" />
      <path
         d="m 1143.26,666.02 c -43.2,29.8 -84.39,62.562 -124.26,96.832 -39.766,34.41 -78.121,70.57 -114.477,108.699 -17.679,19.531 -34.179,40.09 -51.015,60.308 -15.996,20.922 -32.735,41.223 -47.742,62.852 -31.399,42.209 -59.098,86.989 -85.946,132.029 28.875,-43.82 58.453,-87.14 91.594,-127.74 15.867,-20.809 33.445,-40.27 50.238,-60.289 17.633,-19.34 34.895,-38.969 53.297,-57.539 34.789,-38.973 70.836,-76.973 108.921,-112.922 38.09,-35.93 77.62,-70.469 119.39,-102.23"
         style="fill: var(--guitar-color);fill-opacity:1;fill-rule:nonzero;stroke:none"
         id="path190" />
      <path
         d="m 1147.79,680.898 c -21.83,13.832 -42.44,29.442 -63.12,44.961 -20.27,16.02 -40.17,32.551 -59.75,49.45 -39.135,33.839 -75.982,70.293 -111.084,108.339 -17.719,18.872 -34.273,38.793 -51.145,58.411 -15.824,20.5 -32.703,40.14 -47.285,61.581 -30.894,41.51 -57.933,85.8 -82.648,131.07 15.394,-20.79 28.808,-42.77 44.73,-63.05 l 22.782,-31.12 c 7.789,-10.22 15.929,-20.18 23.863,-30.28 15.734,-20.299 32.617,-39.678 48.918,-59.498 17.125,-19.133 33.539,-38.871 51.332,-57.403 34.621,-37.91 70.855,-74.339 108.017,-109.859 18.55,-17.789 37.51,-35.16 56.79,-52.199 19.07,-17.313 38.72,-33.942 58.6,-50.403"
         style="fill: var(--guitar-color);fill-opacity:1;fill-rule:nonzero;stroke:none"
         id="path192" />
      <path
         d="m 1416.54,519.879 c 53.14,-16.219 105.66,-33.938 159.61,-45.809 53.65,-12.582 108.08,-22.238 162.89,-23.718 13.68,0.199 27.39,-0.161 41.04,0.488 l 20.45,1.609 c 6.83,0.422 13.65,0.942 20.4,2.121 13.54,1.969 27.13,3.731 40.46,7.012 6.67,1.566 13.48,2.566 20.11,4.379 l 19.93,5.309 c 13.3,3.5 26.37,8.011 39.54,12.16 l 39.22,13.672 c 26.21,9.046 52.44,18.359 79.09,26.16 -51.55,-20.61 -101.48,-44.84 -154.8,-62.032 -53.06,-17.679 -109.59,-26.5 -165.79,-25.05 -56.28,1.218 -111.7,11.851 -165.41,26.652 -13.35,4.039 -26.92,7.297 -40.05,11.977 l -39.49,13.582 c -13.21,4.347 -25.91,10.14 -38.8,15.328 -12.87,5.242 -25.68,10.621 -38.4,16.16"
         style="fill: var(--guitar-color);fill-opacity:1;fill-rule:nonzero;stroke:none"
         id="path194" />
      <path
         d="m 1405.42,502.141 c 53.61,-18.711 107.68,-36.149 162.96,-48.34 13.82,-2.949 27.76,-5.301 41.62,-7.969 13.82,-2.922 27.94,-3.84 41.87,-5.863 27.97,-3.52 56.08,-3.758 84.08,-4.68 7.01,-0.418 14.02,-0.277 21.02,0.109 l 21.03,0.821 c 14.01,0.793 27.92,2.871 41.91,4.301 27.71,4.679 55.37,10.421 82.33,18.921 54.12,16.368 106.24,39.297 157.93,62.7 -50.73,-25.43 -101.9,-50.43 -155.86,-69.121 -26.87,-9.661 -54.66,-16.61 -82.72,-22.489 -14.17,-2.031 -28.31,-4.699 -42.58,-6.082 l -21.48,-1.699 c -7.16,-0.68 -14.33,-1.102 -21.51,-0.969 -14.35,-0.16 -28.79,-0.562 -43.03,1.489 -14.25,1.691 -28.6,2.472 -42.65,5.32 -14.05,2.68 -28.31,4.269 -42.15,7.832 -13.89,3.328 -27.84,6.328 -41.62,9.937 -55.11,14.782 -108.46,34.68 -161.15,55.782"
         style="fill: var(--guitar-color);fill-opacity:1;fill-rule:nonzero;stroke:none"
         id="path196" />
      <path
         d="m 1394.3,484.379 c 54.74,-19.52 110.35,-36.68 167.03,-48.418 14.2,-2.719 28.3,-6 42.66,-7.66 14.32,-1.879 28.53,-4.469 42.95,-5.199 14.36,-1.051 28.68,-2.61 43.08,-2.36 14.37,-0.222 28.7,-0.472 43.04,-0.07 57.42,0.648 114.72,10.808 169.65,28.859 55.04,17.918 107.54,43.367 158.35,71.489 -49.68,-30.071 -101.25,-57.641 -156.1,-77.911 -54.72,-20.371 -112.68,-33.07 -171.44,-36.027 -7.35,-0.301 -14.7,-1.141 -22.04,-0.801 l -22.02,1.16 c -14.71,0.391 -29.23,2.618 -43.78,4.329 -14.61,1.371 -28.91,4.621 -43.31,7.16 -14.45,2.32 -28.54,6.242 -42.73,9.621 -56.6,14.328 -111.52,33.949 -165.34,55.828"
         style="fill: var(--guitar-color);fill-opacity:1;fill-rule:nonzero;stroke:none"
         id="path198" />
      <path
         d="m 1383.18,466.629 c 55.92,-20.238 112.96,-37.578 171.12,-48.82 14.51,-2.911 29.21,-4.758 43.78,-7.188 14.64,-1.91 29.38,-2.992 44.04,-4.519 14.72,-0.622 29.45,-1.114 44.14,-1.422 14.7,0.718 29.39,0.769 44.07,1.242 58.73,2.367 117.09,14.398 172.72,34.508 55.7,20.031 108.63,47.699 158.9,79.468 -49,-33.66 -100.99,-63.476 -156.46,-85.867 -55.38,-22.461 -114.31,-37.051 -174.35,-41.781 -60.21,-4.031 -120.37,4.68 -178.42,18.18 -58.17,13.82 -114.52,33.621 -169.54,56.199"
         style="fill: var(--guitar-color);fill-opacity:1;fill-rule:nonzero;stroke:none"
         id="path200" />
      <path
         d="m 1372.06,448.871 c 57.2,-20.762 115.65,-38.34 175.33,-48.93 l 22.36,-3.902 22.53,-2.68 c 7.51,-0.8 14.99,-1.898 22.52,-2.461 l 22.61,-1.187 c 30.14,-1.879 60.25,-0.012 90.21,1.949 60.03,3.86 119.47,17.719 175.72,40.031 56.35,22.219 109.43,52.481 159.5,87.09 -48.71,-36.461 -100.8,-68.851 -156.86,-93.461 -55.95,-24.672 -115.89,-41.121 -177.18,-47.39 -61.46,-5.25 -123.24,1.718 -182.88,14.66 -59.76,13.172 -117.57,33.199 -173.86,56.281"
         style="fill: var(--guitar-color);fill-opacity:1;fill-rule:nonzero;stroke:none"
         id="path202" />
      <path
         d="m 1360.95,431.121 c 58.51,-21.223 118.29,-39.34 179.47,-49.5 61.17,-10.121 123.44,-11.262 184.5,-4.101 61.24,5.742 121.74,21.199 178.73,45.55 56.87,24.762 109.94,57.629 160.08,94.582 -48.71,-38.761 -100.72,-73.773 -157.24,-100.902 -56.63,-26.738 -117.57,-44.82 -180.03,-53.02 -62.7,-6.898 -126.11,-1.648 -187.4,10.559 -61.35,12.742 -120.5,33.313 -178.11,56.832"
         style="fill: var(--guitar-color);fill-opacity:1;fill-rule:nonzero;stroke:none"
         id="path204" />
      <path
         d="m 1349.83,413.371 c 29.87,-11.062 60.09,-21.129 90.67,-29.789 15.39,-3.973 30.66,-8.363 46.26,-11.332 l 23.28,-4.859 23.5,-3.621 c 62.65,-9.528 126.44,-9.399 188.66,-0.129 62.51,7.55 123.64,25.769 181.35,51.82 l 42.59,21.168 c 13.87,7.652 27.12,16.453 40.74,24.641 l 20.28,12.539 19.14,14.222 38.32,28.5 -37.28,-29.89 -18.67,-14.969 -19.87,-13.313 c -13.36,-8.718 -26.38,-18.058 -40.06,-26.277 l -42.16,-22.91 c -57.3,-28.442 -118.77,-49.301 -182.46,-59.371 -63.92,-8.672 -128.95,-5.031 -191.81,6.668 l -23.55,4.582 -23.27,5.808 c -15.58,3.602 -30.78,8.602 -46.05,13.18 -30.36,9.883 -60.19,21.121 -89.61,33.332"
         style="fill: var(--guitar-color);fill-opacity:1;fill-rule:nonzero;stroke:none"
         id="path206" />
      <path
         d="m 1338.71,395.609 c 60.74,-23.429 123.49,-42.211 187.87,-50.211 64.26,-8.546 129.52,-6.777 192.89,4.391 63.78,9.113 125.91,29.5 184.08,57.981 58.26,28.468 112.16,65.722 161.96,107.64 -48.26,-43.66 -100.96,-83.031 -158.75,-113.898 -57.68,-30.864 -120.08,-53.91 -184.98,-65.582 -65.15,-10.258 -131.74,-8.59 -196.28,2.199 -64.75,10.543 -127.01,31.801 -186.79,57.48"
         style="fill: var(--guitar-color);fill-opacity:1;fill-rule:nonzero;stroke:none"
         id="path208" />
      <path
         d="m 1327.59,377.859 c 61.46,-25.629 126.11,-43.527 192.02,-50.57 65.84,-7.41 132.51,-3.867 197.01,9.172 32.42,5.781 64.35,14.258 95.62,24.871 31.35,10.488 61.47,24.34 91.06,39.199 58.61,30.957 113.22,69.649 163.1,113.758 -48.29,-45.84 -101.66,-86.617 -159.72,-119.969 -29.32,-16.058 -59.34,-31.172 -90.8,-42.961 -31.38,-11.91 -63.64,-21.711 -96.58,-28.789 -66.35,-11.808 -134.4,-12.238 -200.63,-2.5 -66.33,9.551 -130.63,29.95 -191.08,57.789"
         style="fill: var(--guitar-color);fill-opacity:1;fill-rule:nonzero;stroke:none"
         id="path210" />
      <path
         d="m 1316.47,360.109 c 31.09,-13.89 63.5,-24.3 96.41,-32.199 32.83,-8.238 66.28,-13.738 99.89,-16.68 33.61,-2.761 67.36,-3.621 100.96,-1.39 33.6,1.879 67.05,6.5 99.85,14 32.82,7.23 65.27,16.609 96.58,29.039 l 11.84,4.402 11.6,5.028 23.16,10.14 22.64,11.289 c 7.66,3.563 15.09,7.563 22.41,11.774 l 22.14,12.34 21.49,13.488 c 14.55,8.672 28.05,18.898 42.01,28.531 14.02,9.551 27.06,20.418 40.68,30.598 l 39.16,32.703 c -12.13,-11.922 -24.15,-24.043 -36.72,-35.563 -12.97,-11.039 -25.42,-22.808 -38.91,-33.3 -13.58,-10.36 -26.9,-21.118 -41.24,-30.469 l -21.22,-14.481 -21.95,-13.367 c -14.42,-9.312 -29.96,-16.683 -45.06,-24.832 l -23.38,-10.789 -11.72,-5.351 -11.99,-4.739 c -31.77,-13.152 -64.94,-22.761 -98.45,-30.441 -67.16,-15.098 -136.96,-18.008 -205.07,-9.629 -67.94,8.668 -135.19,27.121 -195.11,59.898"
         style="fill: var(--guitar-color);fill-opacity:1;fill-rule:nonzero;stroke:none"
         id="path212" />
      <path
         d="m 571.297,1401.42 c -2.442,13.67 -4.703,27.37 -6.832,41.11 -2.055,13.74 -4.746,27.43 -5.918,41.3 l -4.051,41.55 c -1.516,13.86 -1.543,27.82 -2.383,41.75 -1.945,55.67 0.547,112.05 12.407,167.08 11.617,55 33.289,107.95 62.773,155.47 29.078,47.89 64.227,90.85 96.219,136.22 -13.77,-24.12 -28.907,-47.48 -43.778,-70.88 l -22.39,-34.99 c -7.074,-11.86 -14.496,-23.52 -20.989,-35.65 l -9.777,-18.16 c -3.301,-6.03 -5.848,-12.41 -8.926,-18.54 -6.277,-12.21 -11.14,-25.02 -16.187,-37.74 -2.715,-6.28 -4.801,-12.8 -6.793,-19.35 l -6.305,-19.52 c -3.793,-13.13 -6.621,-26.55 -9.984,-39.8 -11.254,-53.66 -14.469,-108.86 -14.668,-163.96 -0.961,-55.23 4.109,-110.43 7.582,-165.89"
         style="fill: var(--guitar-color);fill-opacity:1;fill-rule:nonzero;stroke:none"
         id="path214" />
      <path
         d="m 554.594,1393.64 c -8.317,56.12 -15.364,112.6 -17.102,169.6 -0.387,28.48 -0.488,57.04 1.844,85.58 0.434,14.32 2.906,28.46 4.512,42.72 1.242,14.32 4.875,28.29 8.293,42.22 l 2.554,10.46 3.246,10.27 6.489,20.53 c 4.547,13.6 10.343,26.76 15.496,40.1 12.031,26.01 25.023,51.53 40.453,75.54 30.297,48.38 66.101,92.64 102.246,136.36 -34.387,-45.11 -68.379,-90.76 -96.449,-139.82 -14.328,-24.36 -26.11,-50.01 -36.895,-75.95 -4.527,-13.31 -9.691,-26.39 -13.605,-39.87 l -5.539,-20.29 -2.778,-10.14 -2.082,-10.32 c -5.433,-27.47 -11.566,-54.89 -14.507,-82.92 -3.555,-27.95 -4.727,-56.16 -5.622,-84.42 -0.82,-56.57 3.657,-113.18 9.446,-169.65"
         style="fill: var(--guitar-color);fill-opacity:1;fill-rule:nonzero;stroke:none"
         id="path216" />
      <path
         d="m 537.883,1385.86 c -8.824,57.38 -15.32,115.27 -16.488,173.59 -0.075,14.57 -0.727,29.18 0.25,43.76 0.765,14.58 0.789,29.24 2.691,43.77 1.574,14.55 2.625,29.2 5.48,43.61 l 3.739,21.71 c 1.258,7.24 3.722,14.22 5.625,21.3 15.781,56.63 40.758,110.39 72.547,159.32 31.695,49.08 69.832,93.37 110.015,135.22 -38.527,-43.39 -74.797,-89.04 -104.242,-138.82 -29.559,-49.63 -51.926,-103.31 -65.168,-159.14 -3.539,-13.9 -6.441,-27.93 -9.426,-41.98 -3.422,-13.97 -5.058,-28.28 -7.238,-42.51 -2.5,-14.21 -3.145,-28.63 -4.531,-43 -1.598,-14.35 -1.578,-28.82 -2.133,-43.27 -1.375,-57.83 2.566,-115.84 8.879,-173.56"
         style="fill: var(--guitar-color);fill-opacity:1;fill-rule:nonzero;stroke:none"
         id="path218" />
      <path
         d="m 521.176,1378.07 c -9.211,58.69 -15.723,117.97 -16.324,177.67 -0.27,14.92 0.539,29.84 0.757,44.79 0.696,14.93 2.27,29.82 3.368,44.76 1.933,14.84 4.125,29.7 6.386,44.53 3.242,14.65 5.891,29.5 10.426,43.84 17.426,57.57 44.137,112.01 77.844,161.29 33.648,49.38 73.867,93.74 117.222,134.33 -41.781,-42.23 -80.101,-87.97 -111.496,-138.07 -31.461,-50.02 -55.546,-104.44 -70.394,-161.26 -3.547,-14.24 -6.793,-28.55 -10.649,-42.74 -2.808,-14.41 -5.578,-28.87 -8.101,-43.38 -1.695,-14.62 -3.875,-29.23 -5.188,-43.93 -0.836,-14.74 -2.265,-29.46 -2.621,-44.25 -1.914,-59.16 2.051,-118.56 8.77,-177.58"
         style="fill: var(--guitar-color);fill-opacity:1;fill-rule:nonzero;stroke:none"
         id="path220" />
      <path
         d="m 504.465,1370.29 c -9.418,60.02 -16.117,120.7 -16.086,181.8 0.238,60.93 6.359,122.66 24.262,181.6 18.851,58.56 47.328,113.73 83.109,163.22 35.738,49.62 78.336,93.65 124.223,133.49 -44.371,-41.55 -85.082,-87.01 -118.547,-137.39 -33.531,-50.28 -59.363,-105.49 -75.602,-163.32 -8.156,-28.86 -16.265,-57.89 -20.769,-87.71 l -3.617,-22.32 c -0.993,-7.47 -1.567,-15 -2.372,-22.51 -0.711,-7.51 -1.597,-15.02 -2.164,-22.56 l -1.023,-22.66 c -2.527,-60.49 1.637,-121.28 8.586,-181.64"
         style="fill: var(--guitar-color);fill-opacity:1;fill-rule:nonzero;stroke:none"
         id="path222" />
      <path
         d="m 487.758,1362.5 c -9.617,61.39 -16.914,123.43 -16.539,185.97 0.871,62.38 8.636,125.4 28.105,185.3 20.719,59.39 50.746,115.33 88.574,165.13 38.141,49.66 83.161,93.18 131.192,132.62 -46.567,-41.22 -89.711,-86.22 -125.586,-136.7 -35.566,-50.63 -62.934,-106.67 -80.992,-165.37 -19.399,-58.25 -30.953,-119.33 -33.848,-181.19 -2.851,-61.87 1.93,-124.01 9.094,-185.76"
         style="fill: var(--guitar-color);fill-opacity:1;fill-rule:nonzero;stroke:none"
         id="path224" />
      <path
         d="m 471.047,1354.71 c -5.086,31.39 -9.672,62.88 -12.906,94.57 -1.262,15.88 -2.981,31.75 -3.297,47.7 l -0.906,23.93 0.324,23.95 c 1.316,63.8 10.652,128.14 31.875,188.94 22.527,60.31 55.242,116.29 94.687,166.52 l 31,36.53 c 10.805,11.72 22.637,22.48 33.887,33.75 l 17.09,16.69 18.484,15.14 36.914,30.21 -35.765,-31.53 -17.852,-15.74 -16.414,-17.25 c -10.785,-11.62 -22.129,-22.72 -32.422,-34.74 l -29.383,-37.31 c -37.179,-51.11 -67.222,-107.26 -87.058,-166.91 -21.461,-59.03 -34.242,-121.39 -37.653,-184.58 l -1.246,-23.7 -0.015,-23.76 c -0.305,-15.86 0.793,-31.68 1.437,-47.54 1.992,-31.67 5.352,-63.3 9.219,-94.87"
         style="fill: var(--guitar-color);fill-opacity:1;fill-rule:nonzero;stroke:none"
         id="path226" />
      <path
         d="m 454.34,1346.93 c -11.637,63.89 -20.399,128.9 -17.824,194.36 2.16,65.28 13.461,130.8 36.254,192.58 12.085,30.6 26.793,60.12 43.875,88.12 17.113,27.95 35.753,55 57.011,79.85 41.789,50.34 91.074,93.78 143.66,131.94 -51.195,-40.03 -98.652,-85.07 -138.183,-136.34 -20.129,-25.33 -37.539,-52.68 -53.36,-80.73 -15.789,-28.11 -29.14,-57.52 -39.859,-87.82 -23.34,-59.85 -37.758,-123.4 -42.066,-187.97 -4.989,-64.62 1.257,-129.65 10.492,-193.99"
         style="fill: var(--guitar-color);fill-opacity:1;fill-rule:nonzero;stroke:none"
         id="path228" />
      <path
         d="m 437.629,1339.15 c -14.367,64.84 -22.371,131.63 -18.844,198.47 3.219,66.75 16.57,133.38 41.02,196.09 13.332,30.89 29.172,60.59 46.976,88.98 17.797,28.44 38.449,54.89 60.024,80.37 44.238,50.13 94.941,94.06 149.629,131.84 -53.321,-39.71 -102.223,-85.26 -144.215,-136.39 -20.449,-25.98 -39.875,-52.77 -56.375,-81.33 -16.508,-28.54 -30.977,-58.18 -42.926,-88.79 -25.309,-60.63 -41.441,-125.32 -46.855,-191.23 -5.911,-65.96 -0.434,-132.64 11.566,-198.01"
         style="fill: var(--guitar-color);fill-opacity:1;fill-rule:nonzero;stroke:none"
         id="path230" />
      <path
         d="m 420.926,1331.37 c -20.664,64.98 -26.168,134.36 -21.879,202.63 4.535,68.38 20.629,136.28 48.234,199.24 13.856,31.43 29.782,62.02 48.817,90.62 8.953,14.65 19.73,28.06 29.625,42.06 11.007,13.13 21.215,26.96 33.218,39.2 l 17.461,18.81 18.391,17.88 c 12.027,12.15 25.211,23.06 38.098,34.23 12.953,11.11 27.004,20.86 40.418,31.33 13.812,9.95 28.125,19.22 42.242,28.65 l -39.934,-31.63 c -12.699,-11.26 -26,-21.77 -38.14,-33.59 -12.239,-11.69 -24.934,-22.87 -36.332,-35.36 l -17.465,-18.34 -16.496,-19.2 -8.235,-9.58 -7.695,-10.03 -15.531,-19.92 c -9.442,-13.94 -19.754,-27.28 -28.235,-41.82 -18.222,-28.26 -33.765,-58.18 -47.05,-89 -27.223,-61.46 -43.333,-127.53 -50.348,-194.47 -3.422,-33.5 -4.375,-67.34 -2.442,-101.08 1.52,-33.77 5.618,-67.51 13.278,-100.63"
         style="fill: var(--guitar-color);fill-opacity:1;fill-rule:nonzero;stroke:none"
         id="path232" />
      <path
         d="m 2620.35,2266 c 9.13,-30.95 14.03,-63.73 14.03,-97.64 0,-190.23 -154.2,-344.44 -344.42,-344.44 -190.23,0 -344.43,154.21 -344.43,344.44 0,190.21 154.2,344.42 344.43,344.42 29.72,0 58.56,-3.76 86.08,-10.84"
         style="fill:none;stroke: var(--guitar-color);stroke-width:15;stroke-linecap:butt;stroke-linejoin:round;stroke-miterlimit:10;stroke-dasharray:none;stroke-opacity:1"
         id="path234" />
    </g>
  </g>
</svg>
